# xmcd CD database file
# Copyright (C) 1993-1998 Ti Kan
# 
# Track frame offsets:
#     150
#     18641
#     39329
#     59544
#     80035
#     104530
#     124822
#     157511
#     176387
#     200125
#     213638
#     242610
# 
# Disc length: 3285 seconds
# 
# Revision: 1
# Processed by: cddbd v1.4b41PL1 Copyright (c) Steve Scherf et al.
# Submitted via: DiscPlay 4.0.4
# 
DISCID=a30cd30c
DTITLE=George Faber - George Faber
DYEAR=1900
DGENRE=
TTITLE0=Turn To Gray
TTITLE1=It Beats Workin'
TTITLE2=Here Comes The Morning
TTITLE3=Home
TTITLE4=True Love, Blue Love
TTITLE5=All Set Up To Take The Fall
TTITLE6=History's Longest Day
TTITLE7=I Wouldn't Dream Of It
TTITLE8=All About You
TTITLE9=Count The Tears
TTITLE10=Revelation
TTITLE11=It Beats Workin' (Reprise)
EXTD=
EXTT0=
EXTT1=
EXTT2=
EXTT3=
EXTT4=
EXTT5=
EXTT6=
EXTT7=
EXTT8=
EXTT9=
EXTT10=
EXTT11=
PLAYORDER=
